<svg id="Capa_1" data-name="Capa 1" xmlns="http://www.w3.org/2000/svg" viewBox="0 0 407.69 163.1"><defs><style>.cls-1{fill:none;stroke:#000;stroke-miterlimit:10;stroke-width:3px;}</style></defs><title>logo</title><path d="M74.62,17.24Q65.83,18.68,62.93,29.9q-.84,3.49-1.81,18.8H58V45.57q0-20.85-8.8-27.73V63.65q0,7.49,1.8,10.25,2.17,3.38,9.41,3.74v2.77l-2.8-.12q-18.1-.72-27.1,13,6.8,7.95,16.38,8a23.13,23.13,0,0,0,15.65-5.78A18.52,18.52,0,0,0,69.2,80.89,15.92,15.92,0,0,0,65.82,71a10.45,10.45,0,0,0-8.68-4.4,15.69,15.69,0,0,0-2.47.48,14.74,14.74,0,0,1-2.59.48q-.72,0-.72-.36c0-1.05,1-1.85,3-2.41a17.59,17.59,0,0,1,4.46-.61,13.27,13.27,0,0,1,11,5.67,18.77,18.77,0,0,1,4,11.94q0,10.61-9.65,17.84a32,32,0,0,1-19.77,6.75q-18.32,0-31.58-14.71A47.17,47.17,0,0,1,0,59Q0,40,12.3,24.11,25.56,6.88,43.88,6.87c1.69,0,2.53.2,2.53.6s-1.4.89-4.22,1.45Q28.45,11.82,23.75,24.83a43.42,43.42,0,0,0,21.58-7.35Q56.3,10.25,59.43,0q2.3,7,5.07,10,3.5,3.74,10.12,4.46ZM30.5,92.71V41.83a27.65,27.65,0,0,0-1.09-8.92A8.78,8.78,0,0,0,23,27.12a30.39,30.39,0,0,0-.84,8.08V67.39Q22.18,82.59,30.5,92.71Z"/><path d="M163.59,89.09q-10.72,3.25-16.39,14.34-2.79-1.32-9.29-8.19-5.31-5.55-10-6.15V88q6.75-1.8,6.75-11.81,0-3.85-3-18.93a14.45,14.45,0,0,0-3.25-.36Q113,56.9,113,77.28q0,11.44,8.92,13.5v1.08A21.56,21.56,0,0,0,113,96.44q-5,4.11-5.55,8.08-2.77-6.75-8.68-6.75a8.82,8.82,0,0,0-5.48,1.87,5.5,5.5,0,0,0-2.47,4.52c0,1.45.84,3,2.53,4.58a16.14,16.14,0,0,1,2.53,2.65l-.48.36c-2.09,0-4-1.36-5.67-4.1a13.65,13.65,0,0,1-2.29-7.11,12.91,12.91,0,0,1,4.4-10,15.15,15.15,0,0,1,10.55-4,21.74,21.74,0,0,1,4,.36q1-3.61,2.65-10.91a54.17,54.17,0,0,0,1.69-11.15q0-6-9-10.13,12.3-2.65,15.8-28.93a17.71,17.71,0,0,0,.12-2.17,12.54,12.54,0,0,0-3.32-8.56,10.46,10.46,0,0,0-8.13-3.74,9.39,9.39,0,0,0-6.69,2.84,8.7,8.7,0,0,0-3,6.45,7.28,7.28,0,0,0,1.69,4.88,5.32,5.32,0,0,0,4.22,2,10.33,10.33,0,0,0,1.69-.24,13.11,13.11,0,0,1,1.44-.25,1,1,0,0,1,.73.25c-.73,1.28-2.41,1.92-5.07,1.92a6.78,6.78,0,0,1-5.66-2.83,10.67,10.67,0,0,1-2.17-6.69A13,13,0,0,1,99,8.8a19.17,19.17,0,0,1,11.94-3.86q7.83,0,16,5.55,8.92,6.15,12.42,7.35,4.94,1.82,14.35,1.81v2.41a6.56,6.56,0,0,0-1.45-.12q-8.2,0-8.2,9a33.77,33.77,0,0,0,.72,6.15l6.88,35.2a25.3,25.3,0,0,0,3.85,9.41q3.5,5.42,8.08,4.82ZM131,53.53l-6-30.38c-1-5-3-8.82-6-11.52S112.07,7.8,107.41,8.2l-.48.12c.88.24,2.15.64,3.8,1.2s2.87,1,3.67,1.33q6.75,3.62,6.76,12.66a49.71,49.71,0,0,1-1.57,10,46.56,46.56,0,0,0-1.45,9.89q0,10.49,9.28,10.49A19.8,19.8,0,0,0,131,53.53Z"/><path d="M247.74,121a130.63,130.63,0,0,1-14.35-4.83q-8.8-4.09-10.85-9.52-1.08-2.89-1.09-12.42V67.39q0-7.23-4-10-3.25-2.28-10.73-2.77V72.33c0,4.26.56,7.36,1.69,9.28q2.16,3.75,8.19,4.1v2.54q-5.91.6-11.69,5.3t-6.87,10.37q-5.19-7.71-13-7.72a9.51,9.51,0,0,0-6.27,2.11,6.94,6.94,0,0,0-2.53,5.61q0,3.61,2.77,4.7c1,.4,1.45.72,1.45,1,0,.56-.45.85-1.33.85a5.89,5.89,0,0,1-5.3-3.38,12,12,0,0,1-1.81-6.51q0-12.3,16-14.83V54.61c-2.89.08-4.66.81-5.3,2.17a40.11,40.11,0,0,0-.24,6h-3.74V38.7h3.5v3.37c0,3.06,1.59,4.58,4.8,4.58h1V35.32A18.24,18.24,0,0,0,184.69,24a11.89,11.89,0,0,0-10.37-4.94V16.52h11.81q9.88,0,14.83-2.17a46.29,46.29,0,0,0,7.36-4.77,31.65,31.65,0,0,1,10.85-5.24,13.16,13.16,0,0,1,3.37-.48,5.39,5.39,0,0,1,4.1,1.81,42.39,42.39,0,0,0,8.8,7.59,27.88,27.88,0,0,0,11.21,3.26v2.53q-4.58.36-6.27,3.25-1.44,2.29-1.44,7.24V40.63c0,3.85-2.22,6.87-6.63,9a33.26,33.26,0,0,1-11.7,3q5.19.12,11.94,4.22t9.64,4.1a14.83,14.83,0,0,0,4.46-.72v2.53q-8.93,1.8-8.92,9.76V103q0,10.13,10,15.19ZM221.45,44.36V30.26q0-6.27-4.46-9.64-3.24-2.53-10.24-4.1V51.11a61.73,61.73,0,0,0,9.16-.84C219.61,49.31,221.45,47.34,221.45,44.36Z"/><path d="M327.78,92a32.29,32.29,0,0,0-16.27,3.86q-5,3.5-9.77,7.11-5.91,3.73-11.21,3.74-11.68,0-22.78-16.76Q257.51,74.51,257.5,62q0-14.22,10.37-29.29a80.33,80.33,0,0,1,22.54-21.94,3.24,3.24,0,0,1,1.57-.6q.84,0,.84.6c0,.32-.24.68-.72,1.09q-13,11.7-13,26.55V83.76q0,19.32,12.78,19.31,8.55,0,8.56-17.87V36.42q0-10.74-5.79-10.74-4.45,0-11.93,7.11L281.37,31q20.73-16.63,24.35-27.6,1.81,5.89,8.92,10.12A30.49,30.49,0,0,0,327.78,18v2.66q-8.55,1.32-8.56,16.87V78.84q0,9.89,8.56,10.61Zm-36.16,8.8a15.13,15.13,0,0,1-3.14-.36V30.74a32.1,32.1,0,0,1,3.14-2Z"/><path d="M404.45,21.82a7.72,7.72,0,0,0-4,1.93q-8.69,6.63-8.32,20.13-.84-8.79-2.53-13.26-2.89-7.71-9.16-8.8V19.41q8.31-1.32,8.31-5.55a4.23,4.23,0,0,0-2-3.67A8.13,8.13,0,0,0,382,8.8a12.41,12.41,0,0,0-8.44,2.95,9.7,9.7,0,0,0-3.37,7.66V64.62q0,14.22-7,21-4.94,4.83-20.13,10.13v-2q7-3.37,8.8-6.15T353.7,77V55.7a11.62,11.62,0,0,0-1.6-.12q-3.44,0-4.3,2.65a22.44,22.44,0,0,0-.37,5.3h-3.49V41h3.49c0,3.13.17,5,.49,5.54q1,1.69,5.29,1.69h.49v-9.4a18.15,18.15,0,0,0-4-11.33q-4.22-5.79-10.24-5.55V19.41h1.44q11.82,0,18.45-3.5l9.28-6.75q5.07-3.61,13.26-3.61a15.81,15.81,0,0,1,9.89,3.13,56.75,56.75,0,0,1,5.9,6.15,14.47,14.47,0,0,0,6.75,4.58Zm2.3,66.06q-13.38,2.66-20.86,15.68A26.45,26.45,0,0,0,367,96a29.77,29.77,0,0,0-12.53,2.53q-7.12,3.14-7.12,9.29a8.93,8.93,0,0,0,1.45,4.58,20,20,0,0,0,1.45,2.29c0,.48-.33.72-1,.72-1.61,0-3-1-4.1-2.89a8.82,8.82,0,0,1-1.56-5.07q0-10.72,14.22-17.24,9.65-4.45,10.85-5.18a22.52,22.52,0,0,0,8.56-9.28A23.9,23.9,0,0,0,390.71,84q5.67,1.44,16,1.44Zm-28.09-14.1h-2.9V13.26a7.44,7.44,0,0,1,2.9-1.69Z"/><path d="M323.93,142.89a1.49,1.49,0,0,1,.57-.64,2.16,2.16,0,0,1,.82-.29,7.73,7.73,0,0,1,1-.06l.63,0h3.63l2,0c.68,0,1.34,0,2,0l1.74-.07c.52,0,1-.05,1.3-.09h.12a1.4,1.4,0,0,1,.64.15,3.5,3.5,0,0,1,.54.32,4.09,4.09,0,0,1,.42.7c.16.32.32.67.48,1.07a10.6,10.6,0,0,1,.39,1.24,5.06,5.06,0,0,1,.16,1.26,4.45,4.45,0,0,1-.07.79,2.8,2.8,0,0,1-.26.77,1.48,1.48,0,0,1-.53.58,1.57,1.57,0,0,1-.88.22,1.06,1.06,0,0,1-.8-.39,10.43,10.43,0,0,1-.7-.86,10.43,10.43,0,0,0-.7-.86,1.09,1.09,0,0,0-.82-.39h-.64l-.86,0-1.28,0H330.8l.08,3.46a10,10,0,0,0,1.22.17c.41,0,.83.05,1.25.05s1.11,0,1.66-.06l1.64-.09a1.66,1.66,0,0,1,1.29.47,1.79,1.79,0,0,1,.47,1.28,1.93,1.93,0,0,1-.39,1.23,3.21,3.21,0,0,1-1,.81,5.58,5.58,0,0,1-1.43.48c-.54.1-1.1.18-1.66.23s-1.12.08-1.66.1l-1.42.05.05,3.63c.5,0,1,0,1.5.05s1,0,1.42,0a6.54,6.54,0,0,0,1.54-.17,1.73,1.73,0,0,0,1.06-.74h0a5.44,5.44,0,0,1,.9-1.28,2.42,2.42,0,0,1,1.06-.64h.07a2.66,2.66,0,0,1,1,.18,1.65,1.65,0,0,1,.67.48,1.77,1.77,0,0,1,.36.71,4,4,0,0,1,.1.87,5.52,5.52,0,0,1-.12,1.14c-.07.39-.16.75-.25,1.09-.15.5-.3.92-.44,1.29a2.74,2.74,0,0,1-.58.91,2.29,2.29,0,0,1-.87.54,3.86,3.86,0,0,1-1.33.19c-.92,0-1.76,0-2.54-.1s-1.63-.1-2.54-.1-1.94,0-3,.07l-3.23.15a1.58,1.58,0,0,1-.76-.12,1.67,1.67,0,0,1-.59-.42,2.08,2.08,0,0,1-.4-.61,2,2,0,0,1-.14-.74,1.6,1.6,0,0,1,.54-1.28,12.69,12.69,0,0,1,1.25-1V146.35a.68.68,0,0,0-.3-.55l-.63-.5a5.81,5.81,0,0,1-.65-.56,1,1,0,0,1-.31-.75A2.09,2.09,0,0,1,323.93,142.89Z"/><path d="M354.11,158.38c.19,0,.38-.16.56-.49s.44-.85.59-1.12a2.75,2.75,0,0,1,.44-.61,1.16,1.16,0,0,1,.49-.28,5.73,5.73,0,0,1,.74-.13h.2a1.54,1.54,0,0,1,1.21.59,2.26,2.26,0,0,1,.51,1.53,10.37,10.37,0,0,1-.13,1.65,7.12,7.12,0,0,1-.39,1.56,3.13,3.13,0,0,1-.74,1.18,1.85,1.85,0,0,1-1.15.54l-.37,0h-.37c-.62,0-1.27,0-1.94-.1a19.57,19.57,0,0,0-2-.1c-.33,0-.78,0-1.36,0l-1.78.07-1.72.07c-.53,0-.91,0-1.14,0a2.07,2.07,0,0,1-1.41-.51,1.8,1.8,0,0,1-.58-1.38A1.55,1.55,0,0,1,344,160a2.29,2.29,0,0,1,.52-.55l.57-.4a.73.73,0,0,0,.34-.44V145.83a.57.57,0,0,0-.22-.44l-.48-.43a2.6,2.6,0,0,1-.46-.56,1.66,1.66,0,0,1-.21-.88c0-.09,0-.2,0-.3a3,3,0,0,1,.08-.36,5.93,5.93,0,0,1,.68-.67,1.82,1.82,0,0,1,.77-.34,7.4,7.4,0,0,1,1.22-.11h2.09a10.94,10.94,0,0,1,1.12.06,3.54,3.54,0,0,1,1,.26,1.86,1.86,0,0,1,.75.58,1.65,1.65,0,0,1,.29,1,1.6,1.6,0,0,1-.23.87,3.83,3.83,0,0,1-.5.65,5.15,5.15,0,0,1-.74.59l0,12.62Z"/><path d="M372.33,158.38c.19,0,.38-.16.56-.49l.59-1.12a2.75,2.75,0,0,1,.44-.61,1.19,1.19,0,0,1,.5-.28,5.53,5.53,0,0,1,.73-.13h.2a1.54,1.54,0,0,1,1.21.59,2.26,2.26,0,0,1,.51,1.53,10.37,10.37,0,0,1-.13,1.65,7.12,7.12,0,0,1-.39,1.56,3.24,3.24,0,0,1-.73,1.18,1.91,1.91,0,0,1-1.16.54l-.37,0h-.37c-.62,0-1.26,0-1.94-.1a19.57,19.57,0,0,0-2-.1c-.33,0-.78,0-1.35,0l-1.79.07-1.71.07c-.54,0-.92,0-1.15,0a2.07,2.07,0,0,1-1.41-.51A1.79,1.79,0,0,1,362,161a1.55,1.55,0,0,1,.23-.92,2.14,2.14,0,0,1,.53-.55c.19-.15.38-.28.56-.4a.7.7,0,0,0,.34-.44V145.83a.57.57,0,0,0-.22-.44l-.47-.43a2.37,2.37,0,0,1-.47-.56,1.66,1.66,0,0,1-.21-.88c0-.09,0-.2,0-.3s.05-.23.08-.36a5.21,5.21,0,0,1,.69-.67,1.78,1.78,0,0,1,.76-.34,7.43,7.43,0,0,1,1.23-.11h2.08a10.94,10.94,0,0,1,1.12.06,3.54,3.54,0,0,1,1,.26,1.86,1.86,0,0,1,.75.58,1.85,1.85,0,0,1,.06,1.89,3.38,3.38,0,0,1-.5.65,5.15,5.15,0,0,1-.74.59l0,12.62Z"/><path d="M385.86,141.77A4.27,4.27,0,0,1,387,142a2.18,2.18,0,0,1,.92.59,1.62,1.62,0,0,1,.38,1.14.74.74,0,0,1-.12.44,2.43,2.43,0,0,1-.31.35q-.18.17-.39.39a2.58,2.58,0,0,0-.41.61,2.41,2.41,0,0,0-.11.72q0,.59-.06,1.47c0,.59,0,1.26,0,2s0,1.51,0,2.3,0,1.34,0,2,0,1.33,0,1.93,0,1.16,0,1.66,0,.92,0,1.26a.6.6,0,0,0,.23.41l.52.45a4.51,4.51,0,0,1,.52.55,1.14,1.14,0,0,1,.23.68,1.76,1.76,0,0,1-.28,1,1.73,1.73,0,0,1-.73.58,3.3,3.3,0,0,1-1,.26,9.2,9.2,0,0,1-1,.06h-2.14a6.67,6.67,0,0,1-1.62-.19,1.94,1.94,0,0,1-1-.59,1.71,1.71,0,0,1-.37-1.2,1.64,1.64,0,0,1,.14-.67,2.3,2.3,0,0,1,.35-.56,3.89,3.89,0,0,1,.48-.43,2.83,2.83,0,0,1,.5-.28l.05-13.28a6.64,6.64,0,0,1-.73-.61,3.74,3.74,0,0,1-.51-.59,1.18,1.18,0,0,1-.23-.67,1.85,1.85,0,0,1,.91-1.7c.15-.06.3-.12.47-.17a3.63,3.63,0,0,1,.65-.12c.27,0,.6-.06,1-.07s.92,0,1.54,0C385.12,141.73,385.47,141.74,385.86,141.77Z"/><path d="M405.87,142.82a7.32,7.32,0,0,1,.52,1.4,12.36,12.36,0,0,1,.28,1.4c.06.44.09.71.09.83a2.57,2.57,0,0,1-.46,1.58,1.75,1.75,0,0,1-1.53.63,2.41,2.41,0,0,1-1.79-1,5.11,5.11,0,0,0-1.51-1.33,3.86,3.86,0,0,0-1.71-.34,4.78,4.78,0,0,0-.73.06,2.78,2.78,0,0,0-.71.21,1.5,1.5,0,0,0-.55.41,1,1,0,0,0-.22.67.88.88,0,0,0,.31.79,5.65,5.65,0,0,0,1.26.66,31,31,0,0,1,3.68,1,9.54,9.54,0,0,1,2.68,1.43,5.64,5.64,0,0,1,1.65,2.05,6.88,6.88,0,0,1,.56,2.9A5.64,5.64,0,0,1,407,159a7.6,7.6,0,0,1-1.88,2.19,9,9,0,0,1-2.58,1.4,8.82,8.82,0,0,1-2.83.49,9.31,9.31,0,0,1-2.93-.47,9.86,9.86,0,0,1-2.54-1.25,8.11,8.11,0,0,1-1.88-1.81,5.34,5.34,0,0,1-1-2.12,2.36,2.36,0,0,1,.56-1.57,1.78,1.78,0,0,1,1.5-.64,1.37,1.37,0,0,1,.64.15,2.92,2.92,0,0,1,.63.41q.33.27.78.69t1.14,1a3.57,3.57,0,0,0,1.22.6,5.21,5.21,0,0,0,1.46.21,4.72,4.72,0,0,0,1.06-.12,3.54,3.54,0,0,0,.91-.37,1.87,1.87,0,0,0,.62-.63,1.68,1.68,0,0,0,.24-.92,1.25,1.25,0,0,0-.4-1,3.19,3.19,0,0,0-1.11-.58c-.49-.15-1.08-.31-1.77-.45a22.55,22.55,0,0,1-2.32-.64,6.28,6.28,0,0,1-3.32-2.19,5.84,5.84,0,0,1-1.1-3.58,6,6,0,0,1,.56-2.64,6.07,6.07,0,0,1,1.51-2,6.54,6.54,0,0,1,2.19-1.23,8.07,8.07,0,0,1,2.61-.42,3.28,3.28,0,0,1,.91.12l.84.23c.27.08.56.16.86.23a3.83,3.83,0,0,0,1,.11,1.42,1.42,0,0,0,.45-.08l.45-.2.47-.21a1.22,1.22,0,0,1,.45-.1,1,1,0,0,1,.69.32A1.78,1.78,0,0,1,405.87,142.82Z"/><line class="cls-1" x1="9.8" y1="152.41" x2="292.64" y2="152.34"/></svg>